<?xml version="1.0" encoding="UTF-8" standalone="no"?><!DOCTYPE svg PUBLIC "-//W3C//DTD SVG 1.1//EN" "http://www.w3.org/Graphics/SVG/1.1/DTD/svg11.dtd"><svg width="100%" height="100%" viewBox="0 0 421 132" version="1.1" xmlns="http://www.w3.org/2000/svg" xmlns:xlink="http://www.w3.org/1999/xlink" xml:space="preserve" xmlns:serif="http://www.serif.com/" style="fill-rule:evenodd;clip-rule:evenodd;stroke-linejoin:round;stroke-miterlimit:2;"><path d="M176.918,70.828c0.501,-0 0.886,0.17 1.155,0.51c0.268,0.34 0.51,0.707 0.725,1.101c0.215,0.358 0.644,1.191 1.289,2.498c0.644,1.307 1.253,2.596 1.826,3.867c0.573,1.271 0.859,2.05 0.859,2.336c0,0.537 -0.304,1.057 -0.913,1.558c-2.542,1.934 -5.711,3.393 -9.507,4.377c-3.795,0.985 -7.286,1.477 -10.473,1.477c-7.52,0 -13.974,-1.7 -19.363,-5.102c-5.389,-3.402 -9.525,-8.003 -12.407,-13.804c-2.883,-5.801 -4.324,-12.318 -4.324,-19.551c0,-5.192 0.761,-10.106 2.283,-14.743c1.522,-4.637 3.751,-8.737 6.687,-12.3c2.936,-3.563 6.544,-6.356 10.823,-8.379c4.279,-2.023 9.175,-3.035 14.69,-3.035c3.258,0 6.731,0.448 10.419,1.343c3.689,0.895 6.893,2.238 9.615,4.028c0.716,0.466 1.074,1.003 1.074,1.612c-0,0.179 -0.17,0.698 -0.51,1.557c-0.341,0.86 -0.743,1.835 -1.209,2.928c-0.465,1.092 -0.904,2.085 -1.316,2.981c-0.412,0.895 -0.689,1.486 -0.832,1.772c-0.179,0.358 -0.403,0.725 -0.672,1.101c-0.268,0.376 -0.653,0.564 -1.154,0.564c-0.323,0 -0.618,-0.08 -0.887,-0.242c-0.268,-0.161 -0.546,-0.313 -0.832,-0.456c-2.041,-1.289 -4.109,-2.319 -6.204,-3.089c-2.095,-0.769 -4.377,-1.154 -6.848,-1.154c-3.33,-0 -6.302,0.743 -8.916,2.229c-2.614,1.486 -4.825,3.464 -6.633,5.935c-1.809,2.47 -3.178,5.21 -4.109,8.218c-0.931,3.007 -1.397,6.015 -1.397,9.023c0,4.547 0.797,8.764 2.39,12.649c1.594,3.885 4.02,7.018 7.278,9.399c3.259,2.381 7.359,3.572 12.3,3.572c2.507,0 4.825,-0.34 6.956,-1.02c2.13,-0.681 4.234,-1.683 6.311,-3.008c0.286,-0.179 0.573,-0.349 0.859,-0.511c0.287,-0.161 0.609,-0.241 0.967,-0.241Z" style="fill:#424ff8;fill-rule:nonzero;"/><path d="M192.655,12.498c0,-1.468 0.734,-2.202 2.202,-2.202l8.487,-0c1.468,-0 2.202,0.734 2.202,2.202c-0,6.087 -0.018,12.174 -0.054,18.261c-0.036,6.088 -0.054,12.175 -0.054,18.262c0,6.087 0.018,12.175 0.054,18.262c0.036,6.087 0.054,12.174 0.054,18.262c-0,1.468 -0.734,2.202 -2.202,2.202l-8.487,-0c-1.468,-0 -2.202,-0.734 -2.202,-2.202c0,-6.088 0.018,-12.175 0.054,-18.262c0.036,-6.087 0.054,-12.175 0.054,-18.262c-0,-6.087 -0.018,-12.174 -0.054,-18.262c-0.036,-6.087 -0.054,-12.174 -0.054,-18.261Z" style="fill:#424ff8;fill-rule:nonzero;"/><path d="M235.517,88.767c-4.655,0 -8.558,-1.11 -11.709,-3.33c-3.151,-2.22 -5.524,-5.165 -7.117,-8.835c-1.594,-3.671 -2.39,-7.654 -2.39,-11.951l-0,-0.859c0.071,-4.512 1.011,-8.755 2.82,-12.73c1.808,-3.974 4.431,-7.188 7.868,-9.641c3.438,-2.453 7.591,-3.679 12.461,-3.679c3.008,-0 5.81,0.564 8.406,1.692c2.596,1.128 5.022,2.658 7.278,4.592c0.25,0.251 0.465,0.376 0.644,0.376c0.43,0 0.636,-0.448 0.618,-1.343c-0.018,-0.895 0.107,-1.79 0.376,-2.685c0.268,-0.895 0.976,-1.343 2.121,-1.343l7.574,-0c1.468,-0 2.202,0.734 2.202,2.202c-0,1.54 -0.054,7.699 -0.054,9.238c0,3.939 0.027,7.896 0.081,11.87c0.053,3.975 0.098,7.932 0.134,11.871c0.036,1.862 0.081,3.732 0.134,5.612c0.054,1.88 0.081,3.769 0.081,5.667c-0,1.504 -0.734,2.256 -2.202,2.256l-8.433,-0c-0.967,-0 -1.593,-0.314 -1.88,-0.94c-0.286,-0.627 -0.412,-1.37 -0.376,-2.229c0.036,-0.86 0.036,-1.629 0,-2.31c0,-0.107 -0.018,-0.286 -0.053,-0.537c-0.036,-0.251 -0.144,-0.376 -0.323,-0.376c-0.143,0 -0.277,0.054 -0.403,0.161c-0.125,0.108 -0.241,0.197 -0.349,0.269c-2.506,2.112 -5.21,3.804 -8.11,5.076c-2.9,1.271 -6.034,1.906 -9.399,1.906Zm5.478,-11.44c2.542,-0 4.897,-0.528 7.063,-1.585c2.166,-1.056 3.858,-2.73 5.076,-5.022c0.071,-0.143 0.241,-0.51 0.51,-1.101c0.269,-0.591 0.403,-0.958 0.403,-1.101c-0,-1.253 -0.054,-6.248 -0.054,-7.466c0,-0.573 0.018,-1.208 0.054,-1.906c0.036,-0.699 0.018,-1.316 -0.054,-1.853c-0.036,-0.251 -0.17,-0.627 -0.403,-1.128c-0.232,-0.502 -0.403,-0.86 -0.51,-1.075c-1.253,-2.255 -3.026,-3.938 -5.317,-5.048c-2.292,-1.11 -4.691,-1.665 -7.198,-1.665c-2.649,-0 -4.977,0.662 -6.982,1.987c-2.005,1.325 -3.572,3.07 -4.7,5.237c-1.128,2.166 -1.692,4.538 -1.692,7.116c0,2.579 0.591,4.978 1.773,7.198c1.181,2.22 2.82,4.01 4.914,5.371c2.095,1.36 4.467,2.041 7.117,2.041Z" style="fill:#424ff8;fill-rule:nonzero;"/><path d="M286.81,39.031c1.361,-0 2.095,0.662 2.203,1.987l0.537,6.123c-0,0.036 0.036,0.296 0.107,0.779c0.072,0.483 0.197,0.725 0.376,0.725c0.179,0 0.367,-0.197 0.564,-0.591c0.197,-0.394 0.313,-0.626 0.349,-0.698c1.468,-2.757 3.259,-4.923 5.371,-6.499c2.113,-1.575 4.781,-2.363 8.003,-2.363c0.752,-0 1.71,0.062 2.874,0.188c1.164,0.125 1.745,0.725 1.745,1.799c0,0.537 -0.107,1.379 -0.322,2.525c-0.215,1.145 -0.456,2.3 -0.725,3.464c-0.269,1.164 -0.474,2.05 -0.618,2.659c-0.143,0.608 -0.367,1.083 -0.671,1.423c-0.304,0.34 -0.815,0.51 -1.531,0.51c-0.358,0 -1.754,-0.161 -2.148,-0.161c-2.829,0 -5.21,0.886 -7.144,2.659c-1.933,1.772 -3.384,3.947 -4.35,6.526c-0.967,2.578 -1.451,5.12 -1.451,7.627l0,17.832c0,1.468 -0.734,2.202 -2.202,2.202l-8.325,-0c-1.468,-0 -2.202,-0.752 -2.202,-2.256c-0,-5.55 0.027,-11.091 0.081,-16.624c0.053,-5.532 0.08,-11.055 0.08,-16.569l0,-11.065c0,-1.468 0.734,-2.202 2.202,-2.202l7.197,-0Z" style="fill:#424ff8;fill-rule:nonzero;"/><path d="M313.72,20.715c-0,-1.969 0.734,-3.661 2.202,-5.075c1.468,-1.415 3.187,-2.122 5.156,-2.122c2.005,0 3.769,0.725 5.291,2.176c1.521,1.45 2.282,3.195 2.282,5.236c0,1.97 -0.725,3.68 -2.175,5.13c-1.45,1.45 -3.178,2.175 -5.183,2.175c-2.041,0 -3.814,-0.743 -5.317,-2.229c-1.504,-1.486 -2.256,-3.249 -2.256,-5.291Zm0.805,32.388l0,-11.87c0,-1.468 0.734,-2.202 2.202,-2.202l8.272,-0c1.468,-0 2.202,0.734 2.202,2.202c0,7.376 0.018,14.762 0.054,22.156c0.036,7.394 0.054,14.779 0.054,22.156c-0,1.468 -0.735,2.202 -2.203,2.202l-8.486,-0c-1.468,-0 -2.202,-0.734 -2.202,-2.202c-0,-5.407 0.018,-10.814 0.054,-16.221c0.035,-5.407 0.053,-10.814 0.053,-16.221Z" style="fill:#424ff8;fill-rule:nonzero;"/><path d="M343.852,38.279c-0,-3.079 -0.018,-6.15 -0.054,-9.211c-0.036,-3.062 -0.054,-6.115 -0.054,-9.158c0,-1.468 0.734,-2.202 2.202,-2.202l8.433,-0c1.468,-0 2.202,0.734 2.202,2.202c-0,3.043 -0.009,6.096 -0.027,9.158c-0.018,3.061 -0.027,6.132 -0.027,9.211c0,0.43 0.233,0.644 0.699,0.644l8.432,0c1.468,0 2.202,0.735 2.202,2.203c0,1.11 -0.053,5.621 -0.053,6.767c-0,1.468 -0.734,2.202 -2.203,2.202l-8.378,0c-0.466,0 -0.699,0.215 -0.699,0.645c0,5.801 0.018,11.601 0.054,17.402c0.036,5.801 0.054,11.602 0.054,17.403c-0,1.468 -0.734,2.202 -2.202,2.202l-8.54,-0c-1.469,-0 -2.203,-0.734 -2.203,-2.202c0,-5.801 0.027,-11.602 0.081,-17.403c0.054,-5.801 0.081,-11.601 0.081,-17.402c-0,-0.537 -0.376,-0.797 -1.128,-0.779c-0.752,0.018 -1.612,0.081 -2.579,0.188c-0.966,0.108 -1.826,0.036 -2.578,-0.215c-0.752,-0.25 -1.128,-0.931 -1.128,-2.041l0,-6.767c0,-1.468 0.734,-2.203 2.203,-2.203l4.511,0c0.466,0 0.699,-0.214 0.699,-0.644Z" style="fill:#424ff8;fill-rule:nonzero;"/><path d="M384.457,105.579c-0.501,-0 -1.038,-0.09 -1.611,-0.269c-0.573,-0.179 -0.86,-0.609 -0.86,-1.289c0,-0.286 0.045,-0.555 0.135,-0.806c0.089,-0.25 0.188,-0.501 0.295,-0.751c1.361,-3.116 2.766,-6.213 4.216,-9.292c1.45,-3.08 2.856,-6.177 4.217,-9.292l-0,-0.484c-2.972,-6.875 -5.944,-13.75 -8.916,-20.625c-2.972,-6.875 -5.927,-13.768 -8.863,-20.679c-0.25,-0.572 -0.376,-1.074 -0.376,-1.503c0,-0.681 0.278,-1.11 0.833,-1.29c0.555,-0.179 1.083,-0.268 1.584,-0.268l9.4,-0c0.573,-0 0.993,0.116 1.262,0.349c0.268,0.233 0.528,0.582 0.779,1.047c0.608,1.218 1.154,2.489 1.638,3.814c0.483,1.325 0.958,2.614 1.423,3.867c1.253,3.115 2.48,6.239 3.679,9.373c1.2,3.133 2.462,6.239 3.787,9.318c0.072,0.108 0.161,0.26 0.269,0.457c0.107,0.197 0.232,0.295 0.376,0.295c0.143,0 0.268,-0.089 0.376,-0.268c0.107,-0.179 0.179,-0.322 0.214,-0.43c1.433,-3.079 2.811,-6.203 4.136,-9.372c1.325,-3.169 2.668,-6.311 4.028,-9.427c0.538,-1.253 1.066,-2.551 1.585,-3.894c0.519,-1.342 1.101,-2.623 1.746,-3.84c0.501,-0.859 1.181,-1.289 2.041,-1.289l6.66,-0c0.537,-0 1.074,0.089 1.611,0.268c0.537,0.18 0.806,0.609 0.806,1.29c-0,0.429 -0.126,0.931 -0.376,1.503c-2.614,6.374 -5.273,12.73 -7.976,19.068c-2.704,6.338 -5.38,12.694 -8.03,19.067c-1.11,2.686 -2.229,5.362 -3.357,8.03c-1.128,2.668 -2.265,5.326 -3.411,7.976c-0.573,1.325 -1.137,2.668 -1.692,4.028c-0.555,1.361 -1.136,2.686 -1.745,3.975c-0.43,0.895 -1.11,1.343 -2.041,1.343l-7.842,-0Z" style="fill:#424ff8;fill-rule:nonzero;"/><path id="mvc-framework-text" d="M169.194,125.36c-0.62,0 -1.1,-0.17 -1.44,-0.51c-0.34,-0.34 -0.51,-0.82 -0.51,-1.44l0,-19.05l8.7,0c1.48,0 2.78,0.285 3.9,0.855c1.12,0.57 1.99,1.38 2.61,2.43c0.62,1.05 0.93,2.255 0.93,3.615l0,6.6c0,2.46 -0.62,4.325 -1.86,5.595c-1.24,1.27 -3.06,1.905 -5.46,1.905l-6.87,0Zm6.81,-1.98c1.7,0 2.985,-0.465 3.855,-1.395c0.87,-0.93 1.305,-2.305 1.305,-4.125l0,-6.6c0,-1.46 -0.485,-2.645 -1.455,-3.555c-0.97,-0.91 -2.245,-1.365 -3.825,-1.365l-6.42,0l0,17.04l6.54,0Z" style="fill:#424ff8;fill-rule:nonzero;stroke:#1f28cf;stroke-width:0.37px;"/><path d="M192.834,125.6c-1.2,0 -2.26,-0.255 -3.18,-0.765c-0.92,-0.51 -1.635,-1.23 -2.145,-2.16c-0.51,-0.93 -0.765,-2.005 -0.765,-3.225l2.16,0c0,1.24 0.365,2.245 1.095,3.015c0.73,0.77 1.695,1.155 2.895,1.155l3.33,0c1.18,0 2.13,-0.265 2.85,-0.795c0.72,-0.53 1.08,-1.225 1.08,-2.085l0,-1.92c0,-0.68 -0.265,-1.26 -0.795,-1.74c-0.53,-0.48 -1.255,-0.79 -2.175,-0.93l-5.4,-0.9c-1.52,-0.26 -2.7,-0.8 -3.54,-1.62c-0.84,-0.82 -1.26,-1.85 -1.26,-3.09l0,-1.62c0,-1.46 0.545,-2.625 1.635,-3.495c1.09,-0.87 2.535,-1.305 4.335,-1.305l3.39,0c1.7,0 3.07,0.515 4.11,1.545c1.04,1.03 1.56,2.385 1.56,4.065l-2.16,0c0,-1.1 -0.32,-1.98 -0.96,-2.64c-0.64,-0.66 -1.49,-0.99 -2.55,-0.99l-3.39,0c-1.14,0 -2.05,0.255 -2.73,0.765c-0.68,0.51 -1.02,1.195 -1.02,2.055l0,1.62c0,0.7 0.255,1.29 0.765,1.77c0.51,0.48 1.215,0.8 2.115,0.96l5.37,0.93c1.56,0.28 2.77,0.815 3.63,1.605c0.86,0.79 1.29,1.795 1.29,3.015l0,1.92c0,1.46 -0.56,2.635 -1.68,3.525c-1.12,0.89 -2.59,1.335 -4.41,1.335l-3.45,0Z" style="fill:#424ff8;fill-rule:nonzero;stroke:#1f28cf;stroke-width:0.37px;"/><path d="M208.224,125.36c-0.62,0 -1.1,-0.17 -1.44,-0.51c-0.34,-0.34 -0.51,-0.82 -0.51,-1.44l0,-19.05l2.22,0l0,19.02l11.4,0l0,1.98l-11.67,0Z" style="fill:#424ff8;fill-rule:nonzero;stroke:#1f28cf;stroke-width:0.37px;"/><path d="M232.824,125.36c-0.62,0 -1.1,-0.175 -1.44,-0.525c-0.34,-0.35 -0.51,-0.835 -0.51,-1.455l0,-19.02l14.1,0l0,1.92l-11.88,0l0,7.38l10.98,0l0,1.92l-10.98,0l0,7.86l11.88,0l0,1.92l-12.15,0Z" style="fill:#424ff8;fill-rule:nonzero;stroke:#1f28cf;stroke-width:0.37px;"/><path d="M248.754,110.39l2.1,0l0,2.22c0.46,-0.72 1.06,-1.31 1.8,-1.77c0.74,-0.46 1.48,-0.69 2.22,-0.69l2.04,0c1.38,0 2.495,0.47 3.345,1.41c0.85,0.94 1.275,2.17 1.275,3.69l0,10.11l-2.16,0l0,-10.17c0,-0.92 -0.23,-1.67 -0.69,-2.25c-0.46,-0.58 -1.07,-0.87 -1.83,-0.87l-1.92,0c-0.94,0 -1.795,0.37 -2.565,1.11c-0.77,0.74 -1.255,1.69 -1.455,2.85l0,9.33l-2.16,0l0,-14.97Z" style="fill:#424ff8;fill-rule:nonzero;stroke:#1f28cf;stroke-width:0.37px;"/><path d="M270.774,131.45c-1.32,0 -2.41,-0.355 -3.27,-1.065c-0.86,-0.71 -1.34,-1.645 -1.44,-2.805l2.16,0c0.08,0.6 0.355,1.085 0.825,1.455c0.47,0.37 1.045,0.555 1.725,0.555l2.49,0c1.04,0 1.845,-0.345 2.415,-1.035c0.57,-0.69 0.855,-1.655 0.855,-2.895l0,-2.31c-0.44,0.6 -1.015,1.085 -1.725,1.455c-0.71,0.37 -1.395,0.555 -2.055,0.555l-2.19,0c-1.02,0 -1.93,-0.24 -2.73,-0.72c-0.8,-0.48 -1.42,-1.15 -1.86,-2.01c-0.44,-0.86 -0.66,-1.86 -0.66,-3l0,-3.51c0,-1.78 0.515,-3.22 1.545,-4.32c1.03,-1.1 2.385,-1.65 4.065,-1.65l2.1,0c0.64,0 1.3,0.18 1.98,0.54c0.68,0.36 1.21,0.82 1.59,1.38l0,-1.68l2.1,0l0,15.27c0,1.82 -0.48,3.24 -1.44,4.26c-0.96,1.02 -2.29,1.53 -3.99,1.53l-2.49,0Zm1.98,-8.01c1,0 1.855,-0.395 2.565,-1.185c0.71,-0.79 1.115,-1.795 1.215,-3.015l0,-3.69c-0.08,-1.02 -0.455,-1.855 -1.125,-2.505c-0.67,-0.65 -1.465,-0.975 -2.385,-0.975l-2.04,0c-1.06,0 -1.91,0.37 -2.55,1.11c-0.64,0.74 -0.96,1.72 -0.96,2.94l0,3.51c0,1.12 0.295,2.035 0.885,2.745c0.59,0.71 1.345,1.065 2.265,1.065l2.13,0Z" style="fill:#424ff8;fill-rule:nonzero;stroke:#1f28cf;stroke-width:0.37px;"/><path d="M284.874,108.14c-0.48,0 -0.87,-0.15 -1.17,-0.45c-0.3,-0.3 -0.45,-0.69 -0.45,-1.17c0,-0.48 0.15,-0.87 0.45,-1.17c0.3,-0.3 0.69,-0.45 1.17,-0.45c0.48,0 0.87,0.15 1.17,0.45c0.3,0.3 0.45,0.69 0.45,1.17c0,0.48 -0.15,0.87 -0.45,1.17c-0.3,0.3 -0.69,0.45 -1.17,0.45Zm-1.08,2.25l2.16,0l0,14.97l-2.16,0l0,-14.97Z" style="fill:#424ff8;fill-rule:nonzero;stroke:#1f28cf;stroke-width:0.37px;"/><path d="M291.054,110.39l2.1,0l0,2.22c0.46,-0.72 1.06,-1.31 1.8,-1.77c0.74,-0.46 1.48,-0.69 2.22,-0.69l2.04,0c1.38,0 2.495,0.47 3.345,1.41c0.85,0.94 1.275,2.17 1.275,3.69l0,10.11l-2.16,0l0,-10.17c0,-0.92 -0.23,-1.67 -0.69,-2.25c-0.46,-0.58 -1.07,-0.87 -1.83,-0.87l-1.92,0c-0.94,0 -1.795,0.37 -2.565,1.11c-0.77,0.74 -1.255,1.69 -1.455,2.85l0,9.33l-2.16,0l0,-14.97Z" style="fill:#424ff8;fill-rule:nonzero;stroke:#1f28cf;stroke-width:0.37px;"/><path d="M313.194,125.6c-1.68,0 -3.03,-0.495 -4.05,-1.485c-1.02,-0.99 -1.53,-2.305 -1.53,-3.945l0,-4.29c0,-1.72 0.51,-3.105 1.53,-4.155c1.02,-1.05 2.37,-1.575 4.05,-1.575l2.46,0c1.6,0 2.89,0.51 3.87,1.53c0.98,1.02 1.47,2.37 1.47,4.05l0,2.64l-11.22,0l0,1.8c0,1.04 0.315,1.885 0.945,2.535c0.63,0.65 1.455,0.975 2.475,0.975l2.28,0c1,0 1.81,-0.275 2.43,-0.825c0.62,-0.55 0.93,-1.285 0.93,-2.205l2.1,0c0,1.48 -0.5,2.675 -1.5,3.585c-1,0.91 -2.32,1.365 -3.96,1.365l-2.28,0Zm5.64,-9.09l0,-0.78c0,-1.1 -0.29,-1.985 -0.87,-2.655c-0.58,-0.67 -1.35,-1.005 -2.31,-1.005l-2.46,0c-1.02,0 -1.845,0.35 -2.475,1.05c-0.63,0.7 -0.945,1.62 -0.945,2.76l0,0.63l9.06,0Z" style="fill:#424ff8;fill-rule:nonzero;stroke:#1f28cf;stroke-width:0.37px;"/><path d="M-0,65.725c1.608,0 3.106,-0.733 4.495,-2.2c1.754,-1.833 2.631,-4.4 2.631,-7.7l0,-44.275c0,-7.7 3.253,-11.55 9.758,-11.55l11.95,0l0,8.8l-1.425,0c-4.166,0 -6.249,2.475 -6.249,7.425l-0,37.4c-0,3.85 -1.133,6.875 -3.399,9.075c-1.608,1.833 -3.399,2.842 -5.372,3.025c1.023,0.183 2.01,0.458 2.96,0.825c3.874,2.2 5.811,5.867 5.811,11l-0,37.4c-0,5.133 2.083,7.7 6.249,7.7l1.425,0l0,8.8l-11.95,0c-6.505,0 -9.758,-3.85 -9.758,-11.55l0,-44.275c0,-2.75 -0.676,-5.087 -2.028,-7.012c-1.352,-1.925 -3.051,-2.888 -5.098,-2.888Z" style="fill:#424ff8;fill-rule:nonzero;"/><rect x="37.167" y="16.225" width="11.841" height="99" style="fill:#424ff8;fill-rule:nonzero;"/><path d="M57.34,98.175l-0,-17.05l23.571,-15.4l-23.571,-15.675l-0,-16.775l46.156,32.45l-46.156,32.45Z" style="fill:#424ff8;fill-rule:nonzero;"/></svg>