<?xml version="1.0" encoding="UTF-8" standalone="no"?><!DOCTYPE svg PUBLIC "-//W3C//DTD SVG 1.1//EN" "http://www.w3.org/Graphics/SVG/1.1/DTD/svg11.dtd"><svg width="100%" height="100%" viewBox="0 0 301 75" version="1.1" xmlns="http://www.w3.org/2000/svg" xmlns:xlink="http://www.w3.org/1999/xlink" xml:space="preserve" xmlns:serif="http://www.serif.com/" style="fill-rule:evenodd;clip-rule:evenodd;stroke-linejoin:round;stroke-miterlimit:2;"><g><g id="logo"><path id="path1" d="M0.382,50.15l-0.003,-49.744l16.229,-0l17.618,19.679l18.16,-19.691l16.278,-0.015l0.083,49.57l-25.884,24.605l-0.274,-15.564l12.648,-13.502l-0.031,-28.136l-20.822,22.865l-20.704,-23.168l0.086,28.323l12.38,13.569l-0.121,15.613l-25.643,-24.404Z" style="fill:url(#_Linear1);fill-rule:nonzero;stroke:url(#_Linear2);stroke-width:0.76px;"/></g><path d="M85.683,72.08l2.733,-0l0,-8.383l4.192,8.383l2.551,-0l4.192,-8.383l-0,8.383l2.734,-0l-0,-12.028l-3.463,-0l-4.738,9.476l-4.739,-9.476l-3.462,-0l-0,12.028Z" style="fill:url(#_Linear3);fill-rule:nonzero;"/><path d="M103.634,60.052l6.014,12.028l3.098,-0l6.014,-12.028l-2.825,-0l-4.738,9.476l-4.739,-9.476l-2.824,-0Z" style="fill:url(#_Linear4);fill-rule:nonzero;"/><path d="M120.127,69.893c-0,1.458 1.093,2.187 2.915,2.187l9.295,-0l-0,-1.549l-8.748,-0c-0.455,-0 -0.729,-0.182 -0.729,-0.547l0,-7.836c0,-0.365 0.274,-0.547 0.729,-0.547l8.748,-0l-0,-1.549l-9.295,-0c-1.822,-0 -2.915,0.729 -2.915,2.187l-0,7.654Z" style="fill:url(#_Linear5);fill-rule:nonzero;"/><path d="M141.084,72.08l2.734,-0l0,-5.923l8.566,-0l-0,-1.549l-8.566,-0l0,-3.007l9.477,-0l-0,-1.549l-12.211,-0l0,12.028Z" style="fill:url(#_Linear6);fill-rule:nonzero;"/><path d="M154.753,72.08l2.551,-0l0,-6.925c0,-0.274 0.182,-0.456 0.638,-0.456l2.825,0l-0,-1.367l-3.281,0c-1.731,0 -2.733,0.638 -2.733,2.005l-0,6.743Z" style="fill:url(#_Linear7);fill-rule:nonzero;"/><path d="M162.225,70.075c-0,1.367 1.002,2.005 2.733,2.005l7.472,-0l0,-6.743c0,-1.367 -1.002,-2.005 -2.733,-2.005l-6.743,0l-0,1.367l6.287,0c0.456,0 0.638,0.182 0.638,0.456l-0,1.458l-4.921,-0c-1.731,-0 -2.733,0.637 -2.733,2.004l-0,1.458Zm2.551,0.182l0,-1.822c0,-0.273 0.182,-0.456 0.638,-0.456l4.465,0l-0,2.734l-4.465,0c-0.456,0 -0.638,-0.182 -0.638,-0.456Z" style="fill:url(#_Linear8);fill-rule:nonzero;"/><path d="M174.799,72.08l2.552,-0l-0,-7.381l3.007,0c0.455,0 0.638,0.182 0.638,0.456l-0,6.925l2.551,-0l0,-7.381l3.007,0c0.456,0 0.638,0.182 0.638,0.456l-0,6.925l2.551,-0l0,-6.743c0,-1.367 -1.002,-2.005 -2.733,-2.005l-12.211,0l0,8.748Z" style="fill:url(#_Linear9);fill-rule:nonzero;"/><path d="M192.112,70.075c0,1.367 1.003,2.005 2.734,2.005l7.108,-0l-0,-1.367l-6.652,0c-0.456,0 -0.638,-0.182 -0.638,-0.456l-0,-2.278l7.654,0l-0,-2.642c-0,-1.367 -1.002,-2.005 -2.734,-2.005l-4.738,0c-1.731,0 -2.734,0.638 -2.734,2.005l0,4.738Zm2.552,-3.462l-0,-1.458c-0,-0.274 0.182,-0.456 0.638,-0.456l3.827,0c0.455,0 0.638,0.182 0.638,0.456l-0,1.458l-5.103,-0Z" style="fill:url(#_Linear10);fill-rule:nonzero;"/><path d="M203.776,63.332l2.916,8.748l2.733,-0l2.096,-6.288l2.096,6.288l2.734,-0l2.916,-8.748l-2.37,0l-2.095,6.288l-2.096,-6.288l-2.369,0l-2.096,6.288l-2.096,-6.288l-2.369,0Z" style="fill:url(#_Linear11);fill-rule:nonzero;"/><path d="M220.724,70.075c0,1.367 1.003,2.005 2.734,2.005l4.738,-0c1.732,-0 2.734,-0.638 2.734,-2.005l0,-4.738c0,-1.367 -1.002,-2.005 -2.734,-2.005l-4.738,0c-1.731,0 -2.734,0.638 -2.734,2.005l0,4.738Zm2.552,0.182l-0,-5.102c-0,-0.274 0.182,-0.456 0.638,-0.456l3.827,0c0.455,0 0.638,0.182 0.638,0.456l-0,5.102c-0,0.274 -0.183,0.456 -0.638,0.456l-3.827,0c-0.456,0 -0.638,-0.182 -0.638,-0.456Z" style="fill:url(#_Linear12);fill-rule:nonzero;"/><path d="M233.299,72.08l2.552,-0l-0,-6.925c-0,-0.274 0.182,-0.456 0.637,-0.456l2.825,0l0,-1.367l-3.28,0c-1.731,0 -2.734,0.638 -2.734,2.005l0,6.743Z" style="fill:url(#_Linear13);fill-rule:nonzero;"/><path d="M241.136,72.08l2.551,-0l0,-1.458l1.64,-1.64l3.098,3.098l2.916,-0l-4.556,-4.556l4.192,-4.192l-2.916,0l-4.374,4.374l0,-7.654l-2.551,-0l-0,12.028Z" style="fill:url(#_Linear14);fill-rule:nonzero;"/><path d="M85.815,51.307l7.606,-47.621l17.461,0l5.821,20.107c0.088,0.441 0.22,1.146 0.396,2.116c0.177,0.97 0.309,1.896 0.397,2.778l0.066,1.653l0.397,-3.703c0.177,-1.411 0.353,-2.359 0.529,-2.844l5.755,-20.107l17.527,0l7.606,47.621l-17.197,-0l-1.521,-18.387c0,-0.794 -0.066,-3.726 -0.066,-4.431l-0,-0.993l0.132,-3.836l-0.198,1.323l-0.529,2.646l-0.926,4.762l-0.066,0.397l-5.292,18.519l-12.302,-0l-5.225,-18.519l-0.066,-0.265l-0.926,-4.894l-0.794,-3.969l0.133,1.654l-0,2.877c-0,0.904 0.022,1.753 0.066,2.546l-0,1.455c-0.088,0.353 -0.132,0.596 -0.132,0.728l-1.455,18.387l-17.197,-0Z" style="fill:url(#_Linear15);fill-rule:nonzero;stroke:url(#_Linear16);stroke-width:0.3px;"/><path d="M187.34,30.142l-18.519,9.392l0.331,0.463c0.705,0.705 1.433,1.058 2.182,1.058c0.309,0 0.684,-0.088 1.125,-0.264c0.441,-0.177 0.859,-0.485 1.256,-0.926l0.133,-0.265l0.198,-0.264l10.318,6.217c-1.323,1.763 -2.954,3.23 -4.895,4.398c-1.94,1.168 -4.078,1.973 -6.415,2.414c-1.235,0.221 -2.381,0.331 -3.439,0.331c-3.219,-0 -6.196,-0.816 -8.929,-2.447c-5.821,-3.307 -8.731,-8.268 -8.731,-14.882c0,-1.014 0.11,-2.183 0.331,-3.505c0.573,-3.748 2.16,-6.945 4.762,-9.591c2.602,-2.645 5.776,-4.321 9.524,-5.026c1.147,-0.177 1.951,-0.276 2.414,-0.298c0.463,-0.022 0.827,-0.033 1.092,-0.033c1.19,0 2.359,0.132 3.505,0.397c6.305,1.367 10.693,5.027 13.162,10.979l0.595,1.852Zm-15.873,-2.381c-0.882,-0 -1.522,0.066 -1.919,0.198c-1.322,0.397 -2.292,1.081 -2.91,2.051c-0.617,0.97 -0.926,1.94 -0.926,2.91c0,0.353 0.089,0.838 0.265,1.455l9.127,-4.629c-0.441,-0.573 -0.97,-1.047 -1.587,-1.422c-0.617,-0.375 -1.301,-0.563 -2.05,-0.563Z" style="fill:url(#_Linear17);fill-rule:nonzero;stroke:url(#_Linear18);stroke-width:0.3px;"/><path d="M189.457,51.307l-0,-25.939l15.212,-9.132l-0,5.242l0.794,-0.728c2.601,-2.381 5.71,-3.571 9.325,-3.571l1.257,-0c0.353,-0 0.816,0.066 1.389,0.198c0.573,0.132 1.069,0.243 1.488,0.331c0.419,0.088 1.003,0.286 1.753,0.595l-5.093,15.344c-0.265,-0.264 -0.639,-0.551 -1.124,-0.859c-0.485,-0.309 -0.981,-0.563 -1.489,-0.761c-0.507,-0.198 -1.135,-0.298 -1.885,-0.298c-1.366,0 -2.524,0.408 -3.472,1.224c-0.948,0.816 -1.51,1.764 -1.686,2.844c-0.177,1.08 -0.265,2.238 -0.265,3.472l-0,12.038l-16.204,-0Z" style="fill:url(#_Linear19);fill-rule:nonzero;stroke:url(#_Linear20);stroke-width:0.3px;"/><path d="M220.675,51.307l-0,-40.239l16.204,-9.052l0,49.291l-16.204,-0Z" style="fill:url(#_Linear21);fill-rule:nonzero;stroke:url(#_Linear22);stroke-width:0.3px;"/><path d="M241.641,51.307l0,-25.795l16.204,-9.061l0,34.856l-16.204,-0Zm0.066,-42.396c0,-2.337 0.838,-4.343 2.514,-6.019c1.675,-1.675 3.703,-2.513 6.085,-2.513c2.336,0 4.343,0.838 6.018,2.513c0.838,0.838 1.455,1.753 1.852,2.745c0.397,0.992 0.595,2.062 0.595,3.208c0,1.102 -0.209,2.172 -0.628,3.208c-0.419,1.036 -1.047,1.951 -1.885,2.745c-1.675,1.675 -3.66,2.513 -5.952,2.513c-2.382,-0 -4.41,-0.816 -6.085,-2.447c-1.676,-1.632 -2.514,-3.616 -2.514,-5.953Z" style="fill:url(#_Linear23);fill-rule:nonzero;stroke:url(#_Linear24);stroke-width:0.3px;"/><path d="M262.608,25.248l15.212,-9.078l-0,4.911c1.058,-1.323 2.447,-2.348 4.167,-3.076c1.719,-0.727 3.77,-1.091 6.151,-1.091c3.792,0 6.713,1.069 8.763,3.208c2.051,2.138 3.076,5.148 3.076,9.028l-0,22.157l-16.205,-0l0,-17.461c0,-2.117 -0.815,-3.175 -2.447,-3.175c-1.631,0 -2.447,1.323 -2.447,3.969l0.066,16.667l-16.204,-0l-0.132,-26.059Z" style="fill:url(#_Linear25);fill-rule:nonzero;stroke:url(#_Linear26);stroke-width:0.3px;"/><g id="bird"><path id="path2" d="M170.721,18.039c-0.113,-0.11 -0.152,-0.211 -0.143,-0.37c0.009,-0.158 0.063,-0.266 0.197,-0.396c0.164,-0.161 0.158,-0.166 -0.234,-0.172c-0.401,-0.006 -0.472,0.01 -0.592,0.131c-0.131,0.134 -0.192,0.342 -0.156,0.538c0.01,0.053 0.015,0.101 0.011,0.105c-0.016,0.015 -0.129,-0.111 -0.175,-0.196c-0.065,-0.119 -0.075,-0.246 -0.036,-0.433c0.017,-0.082 0.026,-0.155 0.021,-0.161c-0.006,-0.006 -0.314,-0.01 -0.684,-0.01c-0.655,0.001 -0.674,0.002 -0.752,0.039c-0.151,0.074 -0.274,0.251 -0.319,0.464l-0.023,0.112l-0.032,-0.071c-0.019,-0.042 -0.034,-0.131 -0.039,-0.221c-0.013,-0.244 0.073,-0.441 0.255,-0.586c0.193,-0.154 0.288,-0.173 0.933,-0.182c0.466,-0.007 0.532,-0.012 0.562,-0.039c0.036,-0.032 0.151,-0.211 0.454,-0.706c0.307,-0.503 0.359,-0.59 0.359,-0.607c-0,-0.01 -0.052,-0.093 -0.116,-0.187c-0.225,-0.333 -0.464,-0.873 -0.577,-1.303c-0.029,-0.113 -0.059,-0.209 -0.065,-0.215c-0.007,-0.006 -0.1,-0.077 -0.207,-0.159c-0.531,-0.407 -0.989,-0.862 -1.334,-1.324c-0.571,-0.765 -0.86,-1.516 -0.959,-2.489c-0.025,-0.247 -0.025,-0.959 0,-1.328c0.054,-0.781 0.208,-1.669 0.373,-2.143c0.071,-0.205 0.24,-0.555 0.345,-0.719c0.404,-0.626 1.007,-1.013 1.748,-1.122c0.258,-0.038 0.724,-0.026 0.96,0.025c0.649,0.142 1.107,0.469 1.326,0.946c0.032,0.07 0.073,0.166 0.089,0.212c0.017,0.046 0.045,0.092 0.064,0.102c0.091,0.049 0.258,0.211 0.325,0.316c0.136,0.21 0.198,0.295 0.223,0.477c0.025,0.183 -0.019,0.352 -0.082,0.445c-0.063,0.093 -0.132,0.155 -0.147,0.13c-0.114,-0.19 -0.243,-0.24 -0.368,-0.264c-0.097,-0.018 -0.149,0.01 -0.211,0.113c-0.106,0.178 -0.121,0.42 -0.037,0.606c0.067,0.149 0.178,0.242 0.561,0.469c0.596,0.352 1.138,0.777 1.672,1.307c0.476,0.474 0.752,0.79 1.488,1.702c1.256,1.559 2.23,2.656 2.938,3.312c0.502,0.464 0.919,0.811 1.404,1.168l0.094,0.069l-0.085,0.006c-0.105,0.007 -0.218,-0.015 -0.551,-0.106c-0.451,-0.123 -1.382,-0.42 -1.585,-0.505c-0.149,-0.062 -0.183,-0.011 -0.057,0.083c0.033,0.025 0.202,0.164 0.375,0.31c0.173,0.146 0.363,0.305 0.423,0.354c0.06,0.049 0.419,0.348 0.798,0.664c0.379,0.317 0.93,0.778 1.224,1.023c0.294,0.246 0.539,0.454 0.544,0.463c0.013,0.021 -0.066,0.045 -0.318,0.098c-0.311,0.065 -0.586,0.085 -1,0.074c-0.395,-0.01 -0.527,-0.033 -0.792,-0.136c-0.168,-0.065 -0.226,-0.109 -0.865,-0.655c-0.28,-0.238 -0.533,-0.453 -0.563,-0.477c-0.03,-0.024 -0.186,-0.156 -0.347,-0.292c-0.326,-0.277 -1.278,-1.071 -1.496,-1.249c-0.301,-0.246 -0.256,-0.224 -0.55,-0.265c-0.331,-0.046 -0.601,-0.094 -0.923,-0.161c-0.139,-0.03 -0.261,-0.049 -0.27,-0.043c-0.011,0.007 -0.018,0.145 -0.018,0.345c0,0.45 -0.044,1.077 -0.079,1.112c-0.018,0.018 -0.329,-0.05 -0.539,-0.119c-0.225,-0.074 -0.579,-0.242 -0.747,-0.355c-0.06,-0.039 -0.122,-0.071 -0.139,-0.071c-0.024,-0 -0.043,0.036 -0.079,0.155c-0.069,0.224 -0.19,0.554 -0.273,0.747c-0.04,0.093 -0.073,0.179 -0.073,0.191c-0,0.016 0.048,0.022 0.181,0.022c0.422,0.001 0.663,0.092 0.795,0.299c0.116,0.183 0.139,0.422 0.058,0.603c-0.026,0.059 -0.054,0.107 -0.061,0.107c-0.007,-0 -0.019,-0.038 -0.025,-0.084c-0.03,-0.202 -0.165,-0.384 -0.325,-0.437c-0.075,-0.025 -0.154,-0.029 -0.512,-0.024l-0.422,0.005l-0.148,0.106c-0.229,0.165 -0.469,0.4 -0.526,0.516c-0.05,0.104 -0.064,0.229 -0.036,0.338c0.02,0.08 -0.005,0.074 -0.108,-0.027Zm8.563,-0.619c0,-0.013 -0.461,-0.446 -0.63,-0.591c-0.049,-0.042 -0.228,-0.201 -0.398,-0.353c-0.949,-0.849 -1.694,-1.434 -1.768,-1.388c-0.029,0.018 0.336,0.414 0.625,0.677c0.263,0.24 0.638,0.571 0.827,0.732c0.926,0.783 0.897,0.761 1.141,0.871c0.137,0.063 0.203,0.08 0.203,0.052Zm-8.05,-0.802c0.161,-0.073 0.458,-0.83 0.563,-1.436l0.021,-0.119l-0.158,-0.156c-0.087,-0.085 -0.183,-0.186 -0.212,-0.225c-0.032,-0.042 -0.063,-0.065 -0.078,-0.059c-0.019,0.007 -0.039,0.153 -0.085,0.635c-0.034,0.345 -0.063,0.629 -0.064,0.632c-0.008,0.011 -0.219,-0.124 -0.316,-0.204c-0.146,-0.118 -0.145,-0.118 -0.172,-0.107c-0.037,0.015 -0.659,1.017 -0.645,1.039c0.016,0.026 1.09,0.026 1.146,0Zm2.152,-1.005c0.016,-0.01 0.029,-0.12 0.043,-0.374c0.024,-0.413 0,-0.928 -0.056,-1.231c-0.018,-0.097 -0.03,-0.18 -0.026,-0.184c0.003,-0.003 0.116,0.034 0.25,0.084c0.594,0.219 0.98,0.32 1.793,0.47c0.332,0.061 0.42,0.074 0.823,0.125c0.427,0.053 0.499,0.058 0.523,0.034c0.037,-0.037 0.091,-0.016 -1.027,-0.404c-1.029,-0.357 -1.378,-0.488 -1.921,-0.718c-1.836,-0.778 -2.891,-1.477 -3.572,-2.364c-0.264,-0.344 -0.46,-0.756 -0.562,-1.176c-0.058,-0.241 -0.059,-0.703 -0.002,-0.912c0.084,-0.307 0.256,-0.579 0.476,-0.754c0.208,-0.165 0.36,-0.242 0.633,-0.32c0.109,-0.031 0.426,-0.052 0.766,-0.05c0.042,0.001 0.022,-0.041 -0.065,-0.132c-0.156,-0.165 -0.224,-0.355 -0.209,-0.584c0.011,-0.167 0.061,-0.314 0.148,-0.427c0.077,-0.102 0.072,-0.136 -0.02,-0.151c-0.068,-0.01 -0.068,-0.011 -0.013,-0.013c0.053,-0.002 0.057,-0.006 0.039,-0.039c-0.027,-0.049 0.001,-0.08 0.085,-0.095c0.144,-0.026 0.128,-0.037 -0.067,-0.046l-0.204,-0.01l0.258,-0.004c0.301,-0.004 0.43,0.016 0.571,0.087c0.161,0.081 0.173,0.072 0.152,-0.115c-0.018,-0.154 -0.133,-0.374 -0.252,-0.483c-0.093,-0.085 -0.285,-0.2 -0.334,-0.2c-0.044,-0 -0.234,0.151 -0.354,0.283c-0.067,0.073 -0.114,0.113 -0.109,0.093c0.012,-0.046 -0.044,-0.079 -0.134,-0.082l-0.063,-0.001l0.049,-0.096c0.069,-0.136 0.064,-0.205 -0.024,-0.336c-0.195,-0.292 -0.568,-0.464 -1.016,-0.468c-0.122,-0.002 -0.247,0.007 -0.292,0.02c-0.132,0.036 -0.234,0.064 -0.234,0.094c0,0.024 0.061,0.037 0.262,0.039c0.129,0.002 0.252,0.016 0.281,0.025l0.053,0.016l-0.055,0.029c-0.074,0.038 -0.195,0.177 -0.219,0.253c-0.011,0.033 -0.023,0.06 -0.026,0.06c-0.003,0 -0.034,-0.012 -0.07,-0.027c-0.035,-0.015 -0.15,-0.048 -0.254,-0.073c-0.272,-0.065 -0.454,-0.056 -0.647,0.035c-0.262,0.122 -0.503,0.311 -0.712,0.608c-0.263,0.372 -0.453,0.894 -0.543,1.446c-0.09,0.552 -0.039,0.224 -0.079,0.562c-0.024,0.209 -0.045,0.451 -0.045,0.871c0.008,0.514 0.036,0.756 0.13,1.163c0.303,1.303 1.077,2.354 2.37,3.215c0.326,0.218 1.015,0.608 1.072,0.608c0.046,0 0.026,-0.055 -0.082,-0.227c-0.151,-0.239 -0.393,-0.736 -0.468,-0.964c-0.067,-0.201 -0.074,-0.265 -0.019,-0.179c0.033,0.051 0.072,0.105 0.407,0.556c0.097,0.131 0.206,0.279 0.242,0.327c0.316,0.431 0.655,0.881 0.776,1.027c0.461,0.559 0.909,0.904 1.391,1.072c0.166,0.058 0.153,0.055 0.182,0.037Zm-2.231,-9.254c0.012,-0.005 0.032,-0.005 0.044,-0c0.013,0.004 0.003,0.008 -0.022,0.008c-0.024,0 -0.034,-0.004 -0.022,-0.008Zm-0.888,-0.422c-0.098,-0.035 -0.153,-0.08 -0.193,-0.159c-0.106,-0.204 0.045,-0.451 0.276,-0.452c0.111,-0 0.186,0.033 0.256,0.112c0.062,0.071 0.085,0.155 0.07,0.261c-0.023,0.178 -0.236,0.302 -0.409,0.238Zm7.084,8.129c-0.008,-0.023 -0.379,-0.258 -0.819,-0.518c-0.66,-0.391 -1.074,-0.665 -1.611,-1.069c-0.46,-0.346 -1.049,-0.878 -0.729,-0.659c0.169,0.115 1.448,0.811 2.022,1.099c0.467,0.235 0.617,0.3 0.638,0.279c0.006,-0.006 -0.139,-0.18 -0.321,-0.388c-0.333,-0.378 -0.853,-0.996 -1,-1.188c-0.085,-0.11 -0.088,-0.111 -0.277,-0.126c-0.143,-0.011 -0.484,-0.095 -0.611,-0.15c-0.046,-0.019 -0.088,-0.029 -0.092,-0.022c-0.005,0.007 0.043,0.074 0.107,0.15c0.063,0.075 0.11,0.144 0.104,0.154c-0.017,0.027 -0.448,0.021 -0.605,-0.009c-0.195,-0.038 -0.543,-0.157 -0.717,-0.246c-0.45,-0.23 -0.888,-0.595 -1.19,-0.991c-0.108,-0.142 -0.119,-0.181 -0.034,-0.121c0.063,0.045 0.61,0.373 0.784,0.472c0.139,0.078 0.405,0.191 0.602,0.255c0.163,0.053 0.424,0.106 0.435,0.088c0.013,-0.02 0.007,-0.029 -0.189,-0.272c-0.233,-0.291 -0.408,-0.525 -0.399,-0.534c0.004,-0.004 0.098,0.052 0.209,0.124c0.248,0.161 0.537,0.333 0.759,0.45c0.285,0.151 0.619,0.27 0.619,0.219c0,-0.032 -0.559,-0.715 -0.873,-1.066c-0.772,-0.865 -1.479,-1.415 -2.154,-1.676c-0.225,-0.087 -0.505,-0.143 -0.779,-0.157c-0.437,-0.022 -0.709,0.075 -0.956,0.343c-0.603,0.652 -0.266,1.851 0.788,2.803c0.588,0.531 1.324,0.989 2.089,1.297c0.245,0.099 0.703,0.26 0.74,0.26c0.03,-0 0.007,-0.031 -0.045,-0.061c-0.311,-0.179 -1.035,-0.712 -1.377,-1.012c-0.318,-0.28 -0.843,-0.832 -0.761,-0.801c0.015,0.006 0.142,0.086 0.283,0.177c0.142,0.092 0.408,0.261 0.593,0.374c0.185,0.114 0.426,0.265 0.535,0.335c1.271,0.825 1.447,0.927 2.413,1.401c0.559,0.274 0.966,0.463 1.274,0.591c0.566,0.235 0.557,0.231 0.545,0.195Z" style="fill:#2d3334;fill-rule:nonzero;stroke:#000;stroke-width:0.04px;"/><path id="path3" d="M179.081,17.368c-0.211,-0.096 -0.285,-0.148 -0.682,-0.483c-0.199,-0.169 -0.406,-0.344 -0.459,-0.388c-0.189,-0.161 -0.564,-0.492 -0.827,-0.732c-0.289,-0.263 -0.654,-0.659 -0.625,-0.677c0.074,-0.046 0.819,0.539 1.768,1.388c0.17,0.152 0.349,0.311 0.398,0.353c0.169,0.145 0.63,0.578 0.63,0.591c0,0.028 -0.066,0.011 -0.203,-0.052Zm-0.013,-0.127c-0.09,-0.086 -0.24,-0.222 -0.332,-0.303c-0.093,-0.081 -0.24,-0.212 -0.328,-0.292c-0.772,-0.705 -1.724,-1.478 -1.821,-1.478c-0.006,-0 0.051,0.071 0.126,0.159c0.17,0.199 0.777,0.758 1.297,1.195c0.082,0.068 0.28,0.236 0.441,0.373c0.161,0.137 0.331,0.274 0.378,0.306c0.076,0.052 0.356,0.192 0.39,0.196c0.007,0 -0.06,-0.069 -0.151,-0.156Zm-1.926,-3.231c-0.401,-0.165 -0.496,-0.206 -0.761,-0.325c-0.376,-0.169 -1.372,-0.659 -1.664,-0.818c-0.418,-0.229 -0.641,-0.367 -1.598,-0.988c-0.109,-0.07 -0.35,-0.221 -0.535,-0.335c-0.185,-0.113 -0.451,-0.282 -0.593,-0.374c-0.141,-0.091 -0.268,-0.171 -0.283,-0.177c-0.082,-0.031 0.443,0.521 0.761,0.801c0.342,0.3 1.066,0.833 1.377,1.012c0.052,0.03 0.075,0.061 0.045,0.061c-0.007,-0 -0.113,-0.033 -0.235,-0.073c-1.206,-0.394 -2.359,-1.132 -3.027,-1.938c-0.629,-0.758 -0.817,-1.57 -0.499,-2.157c0.102,-0.189 0.349,-0.403 0.543,-0.472c0.233,-0.082 0.583,-0.087 0.956,-0.015c0.512,0.099 1.101,0.428 1.69,0.944c0.324,0.285 0.533,0.493 0.844,0.841c0.314,0.351 0.873,1.034 0.873,1.066c0,0.051 -0.334,-0.068 -0.619,-0.219c-0.222,-0.117 -0.511,-0.289 -0.759,-0.45c-0.111,-0.072 -0.205,-0.128 -0.209,-0.124c-0.009,0.009 0.166,0.243 0.399,0.534c0.196,0.243 0.202,0.252 0.189,0.272c-0.011,0.018 -0.272,-0.035 -0.435,-0.088c-0.197,-0.064 -0.463,-0.177 -0.602,-0.255c-0.174,-0.099 -0.721,-0.427 -0.784,-0.472c-0.085,-0.06 -0.074,-0.021 0.034,0.121c0.302,0.396 0.74,0.761 1.19,0.991c0.174,0.089 0.522,0.208 0.717,0.246c0.157,0.03 0.588,0.036 0.605,0.009c0.006,-0.01 -0.041,-0.079 -0.104,-0.154c-0.064,-0.076 -0.112,-0.143 -0.107,-0.15c0.004,-0.007 0.046,0.003 0.092,0.022c0.127,0.055 0.468,0.139 0.611,0.15c0.189,0.015 0.192,0.016 0.277,0.126c0.147,0.192 0.667,0.81 1,1.188c0.182,0.208 0.327,0.382 0.321,0.388c-0.021,0.021 -0.171,-0.044 -0.638,-0.279c-0.574,-0.288 -1.853,-0.984 -2.022,-1.099c-0.32,-0.219 0.269,0.313 0.729,0.659c0.537,0.404 0.951,0.678 1.611,1.069c0.62,0.367 0.885,0.543 0.811,0.539c-0.008,-0 -0.098,-0.035 -0.201,-0.077Zm-0.115,-0.131c-0.107,-0.067 -0.314,-0.192 -0.46,-0.278c-1.015,-0.598 -1.894,-1.231 -2.438,-1.755c-0.147,-0.142 -0.178,-0.183 -0.137,-0.183c0.01,-0 0.08,0.042 0.155,0.094c0.123,0.085 0.438,0.263 1.332,0.751c0.534,0.292 1.309,0.676 1.309,0.648c0,-0.01 -0.09,-0.117 -0.318,-0.376c-0.273,-0.31 -0.851,-1.001 -0.992,-1.187c-0.043,-0.056 -0.051,-0.059 -0.177,-0.065c-0.145,-0.007 -0.372,-0.055 -0.565,-0.12c-0.069,-0.024 -0.125,-0.037 -0.125,-0.031c0,0.006 0.045,0.061 0.099,0.123c0.055,0.061 0.095,0.121 0.09,0.134c-0.021,0.056 -0.47,0.055 -0.72,-0.001c-0.685,-0.154 -1.386,-0.626 -1.863,-1.257c-0.125,-0.165 -0.156,-0.218 -0.127,-0.218c0.006,0 0.092,0.051 0.191,0.113c0.67,0.418 0.903,0.543 1.233,0.657c0.175,0.061 0.478,0.138 0.491,0.125c0.004,-0.003 -0.076,-0.108 -0.176,-0.233c-0.1,-0.126 -0.241,-0.306 -0.312,-0.401c-0.193,-0.26 -0.191,-0.278 0.016,-0.134c0.227,0.157 0.706,0.438 0.963,0.566c0.222,0.11 0.477,0.208 0.496,0.189c0.006,-0.006 -0.122,-0.167 -0.492,-0.618c-0.634,-0.775 -1.379,-1.468 -1.922,-1.789c-0.538,-0.317 -0.937,-0.44 -1.436,-0.439c-0.362,0 -0.539,0.054 -0.756,0.23c-0.129,0.104 -0.236,0.264 -0.308,0.461c-0.234,0.639 0.094,1.517 0.845,2.257c0.119,0.117 0.293,0.277 0.387,0.354c0.502,0.414 1.187,0.817 1.832,1.08c0.253,0.103 0.603,0.225 0.613,0.214c0.001,-0.001 -0.109,-0.079 -0.246,-0.171c-0.702,-0.473 -1.363,-1.044 -1.764,-1.522c-0.195,-0.233 -0.182,-0.232 0.179,0.004c0.139,0.091 0.353,0.226 0.475,0.3c0.466,0.283 0.517,0.315 1.244,0.789c0.62,0.404 1.075,0.66 1.906,1.07c0.615,0.303 1.585,0.737 1.655,0.739c0.009,0 -0.071,-0.054 -0.177,-0.12Zm-9.496,-6.323c0.098,-0.6 0.274,-1.074 0.536,-1.446c0.209,-0.297 0.435,-0.497 0.697,-0.619c0.193,-0.091 0.375,-0.1 0.647,-0.035c0.104,0.025 0.219,0.058 0.255,0.073c0.053,0.022 0.066,0.062 -0.003,0.029c-0.132,-0.062 -0.396,-0.116 -0.566,-0.116c-0.14,0 -0.175,0.007 -0.295,0.058c-0.278,0.119 -0.523,0.339 -0.745,0.67c-0.239,0.355 -0.397,0.789 -0.499,1.369c0.021,0.062 -0.112,0.536 -0.027,0.017Zm3.217,-0.853c0.016,-0.015 0.013,-0.034 -0.015,-0.078c-0.028,-0.046 -0.032,-0.066 -0.017,-0.094c0.016,-0.029 0.013,-0.04 -0.016,-0.058c-0.02,-0.013 -0.036,-0.037 -0.036,-0.054c-0,-0.017 -0.012,-0.031 -0.027,-0.031c-0.014,-0 -0.026,-0.011 -0.026,-0.025c-0,-0.013 -0.02,-0.029 -0.044,-0.035c-0.041,-0.01 -0.065,-0.064 -0.03,-0.064c0.008,0 0.015,-0.01 0.015,-0.023c-0,-0.018 -0.031,-0.022 -0.134,-0.016c-0.074,0.004 -0.163,-0.001 -0.197,-0.011c-0.054,-0.015 -0.048,-0.017 0.045,-0.009c0.074,0.006 0.148,-0.003 0.246,-0.028c0.202,-0.053 0.286,-0.103 0.418,-0.264c0.037,-0.045 0.093,-0.112 0.091,-0.066c-0.002,0.046 0.049,0.053 0.108,0.077c0.077,0.031 0.033,0.109 -0.074,0.261c-0.106,0.152 -0.081,0.164 0.003,0.175c0.084,0.01 -0.121,-0.013 0.367,-0.013c0.489,0.001 -0.007,0.042 0.055,0.158c0.024,0.044 -0.058,0.157 -0.103,0.165c-0.106,0.019 -0.422,-0.037 -0.546,0.018c-0.095,0.042 -0.112,0.045 -0.083,0.015Z" style="fill:#3c4345;fill-rule:nonzero;"/><path id="path4" d="M179.059,17.327c-0.196,-0.092 -0.264,-0.141 -0.608,-0.432c-0.161,-0.137 -0.359,-0.305 -0.441,-0.373c-0.52,-0.437 -1.127,-0.996 -1.297,-1.195c-0.075,-0.088 -0.132,-0.159 -0.126,-0.159c0.097,-0 1.049,0.773 1.821,1.478c0.088,0.08 0.235,0.211 0.328,0.292c0.208,0.182 0.501,0.46 0.483,0.459c-0.008,-0.001 -0.08,-0.032 -0.16,-0.07Zm-2.12,-3.432c-0.46,-0.191 -0.865,-0.376 -1.39,-0.635c-0.831,-0.41 -1.286,-0.666 -1.906,-1.07c-0.727,-0.474 -0.778,-0.506 -1.244,-0.789c-0.122,-0.074 -0.336,-0.209 -0.475,-0.3c-0.361,-0.236 -0.374,-0.237 -0.179,-0.004c0.401,0.478 1.062,1.049 1.764,1.522c0.137,0.092 0.247,0.17 0.246,0.171c-0.002,0.002 -0.075,-0.018 -0.162,-0.046c-0.259,-0.081 -0.723,-0.277 -1.017,-0.429c-1.505,-0.777 -2.453,-1.826 -2.566,-2.837c-0.045,-0.409 0.107,-0.837 0.376,-1.054c0.217,-0.176 0.394,-0.23 0.756,-0.23c0.499,-0.001 0.898,0.122 1.436,0.439c0.543,0.321 1.288,1.014 1.922,1.789c0.37,0.451 0.498,0.612 0.492,0.618c-0.019,0.019 -0.274,-0.079 -0.496,-0.189c-0.257,-0.128 -0.736,-0.409 -0.963,-0.566c-0.207,-0.144 -0.209,-0.126 -0.016,0.134c0.071,0.095 0.212,0.275 0.312,0.401c0.1,0.125 0.18,0.23 0.176,0.233c-0.013,0.013 -0.316,-0.064 -0.491,-0.125c-0.33,-0.114 -0.563,-0.239 -1.233,-0.657c-0.189,-0.118 -0.201,-0.124 -0.201,-0.094c-0,0.033 0.27,0.376 0.415,0.528c0.241,0.251 0.607,0.524 0.922,0.686c0.159,0.083 0.489,0.203 0.663,0.242c0.25,0.056 0.699,0.057 0.72,0.001c0.005,-0.013 -0.035,-0.073 -0.09,-0.134c-0.054,-0.062 -0.099,-0.117 -0.099,-0.123c0,-0.006 0.056,0.007 0.125,0.031c0.193,0.065 0.42,0.113 0.565,0.12c0.126,0.006 0.134,0.009 0.177,0.065c0.141,0.186 0.719,0.877 0.992,1.187c0.228,0.259 0.318,0.366 0.318,0.376c0,0.028 -0.775,-0.356 -1.309,-0.648c-0.894,-0.488 -1.209,-0.666 -1.332,-0.751c-0.075,-0.052 -0.145,-0.094 -0.155,-0.094c-0.041,-0 -0.01,0.041 0.137,0.183c0.544,0.524 1.423,1.157 2.438,1.755c0.351,0.207 0.657,0.399 0.637,0.398c-0.01,-0 -0.129,-0.047 -0.265,-0.104Zm-8.895,-5.877c-0.192,-0.013 -0.36,-0.002 -0.49,-0.045c-0.13,-0.043 -0.072,-0.089 0.001,-0.469c0.072,-0.381 0.269,-1.032 0.5,-1.376c0.231,-0.344 0.469,-0.509 0.747,-0.628c0.12,-0.051 0.155,-0.058 0.295,-0.058c0.17,-0 0.434,0.054 0.566,0.116c0.038,0.019 0.074,0.026 0.079,0.017c0.006,-0.008 0.081,0.361 0.198,0.466c0.113,0.102 0.23,0.142 0.414,0.142c0.123,-0.001 0.133,0.001 0.071,0.015c-0.039,0.008 -0.115,0.012 -0.168,0.007c-0.088,-0.008 -0.092,-0.007 -0.036,0.009c0.034,0.01 0.123,0.015 0.197,0.011c0.103,-0.006 0.134,-0.002 0.134,0.016c-0,0.013 -0.007,0.023 -0.015,0.023c-0.035,0 -0.011,0.054 0.03,0.064c0.024,0.006 0.044,0.022 0.044,0.035c-0,0.014 0.012,0.025 0.026,0.025c0.015,-0 0.027,0.014 0.027,0.031c-0,0.017 0.016,0.041 0.036,0.054c0.029,0.018 0.032,0.029 0.016,0.058c-0.015,0.028 -0.011,0.048 0.017,0.094c0.029,0.046 0.032,0.063 0.014,0.081c-0.017,0.019 -0.016,0.021 0.013,0.01c0.159,-0.064 -0.364,0.287 -0.45,0.362c-0.488,0.419 -0.849,0.637 -1.301,0.786c-0.326,0.108 -0.627,0.179 -0.965,0.154Z" style="fill:#454e51;fill-rule:nonzero;"/><path id="path7" d="M172.091,6.439c-0.155,-0.079 -0.314,-0.106 -0.744,-0.093c-0.211,0.006 -0.32,0.014 -0.342,-0.002c-0.022,-0.017 0.008,-0.201 0.115,-0.328c0.186,-0.22 0.238,-0.256 0.37,-0.336c0.132,-0.079 0.196,-0.066 0.373,0.066c0.177,0.132 0.297,0.315 0.339,0.514c0.042,0.198 0.043,0.257 -0.111,0.179Zm-1.979,-0.312c-0.109,-0.05 -0.343,-0.246 -0.346,-0.488c-0.003,-0.159 0.023,-0.267 0.206,-0.387c0.024,-0.016 0.013,-0.004 0.063,-0.038c-0.022,-0.023 -0.111,-0.033 -0.254,-0.039c-0.143,-0.007 -0.364,0.006 -0.369,-0.03c-0.006,-0.036 0.122,-0.096 0.375,-0.136c0.168,-0.027 0.477,0.002 0.665,0.071c0.189,0.07 0.345,0.184 0.499,0.365c0.154,0.181 0.129,0.332 -0.035,0.496c-0.164,0.163 -0.225,0.178 -0.395,0.221c-0.157,0.04 -0.3,0.015 -0.409,-0.035Zm0.582,-0.502c-0.006,-0.152 -0.144,-0.313 -0.339,-0.308c-0.195,0.005 -0.327,0.161 -0.324,0.327c0.003,0.165 0.132,0.315 0.343,0.314c0.21,-0.002 0.325,-0.181 0.32,-0.333Z" style="fill:#dabc59;fill-rule:nonzero;stroke:#000;stroke-width:0.04px;"/><path id="path6" d="M171.614,14.24c-0.139,-0.176 -1.05,-1.447 -1.185,-1.643c-0.079,-0.115 -0.144,-0.109 -0.036,0.191c0.108,0.3 0.345,0.769 0.481,0.989c0.136,0.22 0.182,0.212 -0.078,0.101c-0.088,-0.038 -0.978,-0.543 -1.517,-0.997c-0.539,-0.453 -0.895,-0.835 -1.303,-1.57c-0.408,-0.736 -0.577,-1.659 -0.566,-2.22c0.011,-0.561 0.024,-1.062 0.068,-1.181c0.151,0.072 0.406,0.078 0.901,0.064c0.496,-0.015 1.164,-0.299 1.682,-0.718c0.518,-0.419 0.52,-0.423 0.734,-0.542c0.187,-0.104 0.787,-0.207 0.654,-0.057c-0.13,0.146 -0.179,0.245 -0.196,0.453c-0.017,0.209 0.035,0.364 0.113,0.486c0.079,0.121 0.167,0.215 0.163,0.216c-0.004,0 -0.137,0.011 -0.264,0.014c-1.554,0.021 -1.707,1.235 -1.662,1.743c0.044,0.508 0.304,1.329 1.191,2.127c0.888,0.798 2.269,1.446 3.496,1.929c1.226,0.482 1.915,0.664 2.331,0.841c0.415,0.177 -0.579,0.005 -1.111,-0.08c-0.531,-0.085 -1.438,-0.314 -1.805,-0.458c-0.366,-0.145 -0.386,-0.216 -0.337,0.072c0.048,0.288 0.058,0.552 0.051,0.994c-0.006,0.441 0.015,0.623 -0.119,0.62c-0.068,-0.001 -0.547,-0.239 -0.748,-0.405c-0.2,-0.167 -0.798,-0.793 -0.938,-0.969Z" style="fill:#fffee3;"/></g></g><defs><linearGradient id="_Linear1" x1="0" y1="0" x2="1" y2="0" gradientUnits="userSpaceOnUse" gradientTransform="matrix(4.38669e-15,71.6401,-71.6401,4.38669e-15,32.6658,-0.0589276)"><stop offset="0" style="stop-color:#fa2dac;stop-opacity:0.99"/><stop offset="1" style="stop-color:#4b27a0;stop-opacity:0.99"/></linearGradient><linearGradient id="_Linear2" x1="0" y1="0" x2="1" y2="0" gradientUnits="userSpaceOnUse" gradientTransform="matrix(-1.09327,71.803,-71.803,-1.09327,12.2483,0.394196)"><stop offset="0" style="stop-color:#f00697;stop-opacity:1"/><stop offset="1" style="stop-color:#3c1f81;stop-opacity:1"/></linearGradient><linearGradient id="_Linear3" x1="0" y1="0" x2="1" y2="0" gradientUnits="userSpaceOnUse" gradientTransform="matrix(1.29369e-15,21.1276,-21.1276,1.29369e-15,161.875,54.7794)"><stop offset="0" style="stop-color:#4967f4;stop-opacity:1"/><stop offset="1" style="stop-color:#2a34e7;stop-opacity:1"/></linearGradient><linearGradient id="_Linear4" x1="0" y1="0" x2="1" y2="0" gradientUnits="userSpaceOnUse" gradientTransform="matrix(1.29369e-15,21.1276,-21.1276,1.29369e-15,161.875,54.7794)"><stop offset="0" style="stop-color:#4967f4;stop-opacity:1"/><stop offset="1" style="stop-color:#2a34e7;stop-opacity:1"/></linearGradient><linearGradient id="_Linear5" x1="0" y1="0" x2="1" y2="0" gradientUnits="userSpaceOnUse" gradientTransform="matrix(1.29369e-15,21.1276,-21.1276,1.29369e-15,161.875,54.7794)"><stop offset="0" style="stop-color:#4967f4;stop-opacity:1"/><stop offset="1" style="stop-color:#2a34e7;stop-opacity:1"/></linearGradient><linearGradient id="_Linear6" x1="0" y1="0" x2="1" y2="0" gradientUnits="userSpaceOnUse" gradientTransform="matrix(1.29369e-15,21.1276,-21.1276,1.29369e-15,161.875,54.7794)"><stop offset="0" style="stop-color:#4967f4;stop-opacity:1"/><stop offset="1" style="stop-color:#2a34e7;stop-opacity:1"/></linearGradient><linearGradient id="_Linear7" x1="0" y1="0" x2="1" y2="0" gradientUnits="userSpaceOnUse" gradientTransform="matrix(1.29369e-15,21.1276,-21.1276,1.29369e-15,161.875,54.7794)"><stop offset="0" style="stop-color:#4967f4;stop-opacity:1"/><stop offset="1" style="stop-color:#2a34e7;stop-opacity:1"/></linearGradient><linearGradient id="_Linear8" x1="0" y1="0" x2="1" y2="0" gradientUnits="userSpaceOnUse" gradientTransform="matrix(1.29369e-15,21.1276,-21.1276,1.29369e-15,161.875,54.7794)"><stop offset="0" style="stop-color:#4967f4;stop-opacity:1"/><stop offset="1" style="stop-color:#2a34e7;stop-opacity:1"/></linearGradient><linearGradient id="_Linear9" x1="0" y1="0" x2="1" y2="0" gradientUnits="userSpaceOnUse" gradientTransform="matrix(1.29369e-15,21.1276,-21.1276,1.29369e-15,161.875,54.7794)"><stop offset="0" style="stop-color:#4967f4;stop-opacity:1"/><stop offset="1" style="stop-color:#2a34e7;stop-opacity:1"/></linearGradient><linearGradient id="_Linear10" x1="0" y1="0" x2="1" y2="0" gradientUnits="userSpaceOnUse" gradientTransform="matrix(1.29369e-15,21.1276,-21.1276,1.29369e-15,161.875,54.7794)"><stop offset="0" style="stop-color:#4967f4;stop-opacity:1"/><stop offset="1" style="stop-color:#2a34e7;stop-opacity:1"/></linearGradient><linearGradient id="_Linear11" x1="0" y1="0" x2="1" y2="0" gradientUnits="userSpaceOnUse" gradientTransform="matrix(1.29369e-15,21.1276,-21.1276,1.29369e-15,161.875,54.7794)"><stop offset="0" style="stop-color:#4967f4;stop-opacity:1"/><stop offset="1" style="stop-color:#2a34e7;stop-opacity:1"/></linearGradient><linearGradient id="_Linear12" x1="0" y1="0" x2="1" y2="0" gradientUnits="userSpaceOnUse" gradientTransform="matrix(1.29369e-15,21.1276,-21.1276,1.29369e-15,161.875,54.7794)"><stop offset="0" style="stop-color:#4967f4;stop-opacity:1"/><stop offset="1" style="stop-color:#2a34e7;stop-opacity:1"/></linearGradient><linearGradient id="_Linear13" x1="0" y1="0" x2="1" y2="0" gradientUnits="userSpaceOnUse" gradientTransform="matrix(1.29369e-15,21.1276,-21.1276,1.29369e-15,161.875,54.7794)"><stop offset="0" style="stop-color:#4967f4;stop-opacity:1"/><stop offset="1" style="stop-color:#2a34e7;stop-opacity:1"/></linearGradient><linearGradient id="_Linear14" x1="0" y1="0" x2="1" y2="0" gradientUnits="userSpaceOnUse" gradientTransform="matrix(1.29369e-15,21.1276,-21.1276,1.29369e-15,161.875,54.7794)"><stop offset="0" style="stop-color:#4967f4;stop-opacity:1"/><stop offset="1" style="stop-color:#2a34e7;stop-opacity:1"/></linearGradient><linearGradient id="_Linear15" x1="0" y1="0" x2="1" y2="0" gradientUnits="userSpaceOnUse" gradientTransform="matrix(227.456,0,0,227.456,88.8576,13.6704)"><stop offset="0" style="stop-color:#3b45ef;stop-opacity:1"/><stop offset="0.5" style="stop-color:#2b80ee;stop-opacity:1"/><stop offset="1" style="stop-color:#3b45ef;stop-opacity:1"/></linearGradient><linearGradient id="_Linear16" x1="0" y1="0" x2="1" y2="0" gradientUnits="userSpaceOnUse" gradientTransform="matrix(214.162,0,0,52.3168,85.8151,26.5374)"><stop offset="0" style="stop-color:#121fe2;stop-opacity:1"/><stop offset="0.5" style="stop-color:#1166d4;stop-opacity:1"/><stop offset="1" style="stop-color:#121fe2;stop-opacity:1"/></linearGradient><linearGradient id="_Linear17" x1="0" y1="0" x2="1" y2="0" gradientUnits="userSpaceOnUse" gradientTransform="matrix(227.456,0,0,227.456,88.8576,13.6704)"><stop offset="0" style="stop-color:#3b45ef;stop-opacity:1"/><stop offset="0.5" style="stop-color:#2b80ee;stop-opacity:1"/><stop offset="1" style="stop-color:#3b45ef;stop-opacity:1"/></linearGradient><linearGradient id="_Linear18" x1="0" y1="0" x2="1" y2="0" gradientUnits="userSpaceOnUse" gradientTransform="matrix(214.162,0,0,52.3168,85.8151,26.5374)"><stop offset="0" style="stop-color:#121fe2;stop-opacity:1"/><stop offset="0.5" style="stop-color:#1166d4;stop-opacity:1"/><stop offset="1" style="stop-color:#121fe2;stop-opacity:1"/></linearGradient><linearGradient id="_Linear19" x1="0" y1="0" x2="1" y2="0" gradientUnits="userSpaceOnUse" gradientTransform="matrix(227.456,0,0,227.456,88.8576,13.6704)"><stop offset="0" style="stop-color:#3b45ef;stop-opacity:1"/><stop offset="0.5" style="stop-color:#2b80ee;stop-opacity:1"/><stop offset="1" style="stop-color:#3b45ef;stop-opacity:1"/></linearGradient><linearGradient id="_Linear20" x1="0" y1="0" x2="1" y2="0" gradientUnits="userSpaceOnUse" gradientTransform="matrix(214.162,0,0,52.3168,85.8151,26.5374)"><stop offset="0" style="stop-color:#121fe2;stop-opacity:1"/><stop offset="0.5" style="stop-color:#1166d4;stop-opacity:1"/><stop offset="1" style="stop-color:#121fe2;stop-opacity:1"/></linearGradient><linearGradient id="_Linear21" x1="0" y1="0" x2="1" y2="0" gradientUnits="userSpaceOnUse" gradientTransform="matrix(227.456,0,0,227.456,88.8576,13.6704)"><stop offset="0" style="stop-color:#3b45ef;stop-opacity:1"/><stop offset="0.5" style="stop-color:#2b80ee;stop-opacity:1"/><stop offset="1" style="stop-color:#3b45ef;stop-opacity:1"/></linearGradient><linearGradient id="_Linear22" x1="0" y1="0" x2="1" y2="0" gradientUnits="userSpaceOnUse" gradientTransform="matrix(214.162,0,0,52.3168,85.8151,26.5374)"><stop offset="0" style="stop-color:#121fe2;stop-opacity:1"/><stop offset="0.5" style="stop-color:#1166d4;stop-opacity:1"/><stop offset="1" style="stop-color:#121fe2;stop-opacity:1"/></linearGradient><linearGradient id="_Linear23" x1="0" y1="0" x2="1" y2="0" gradientUnits="userSpaceOnUse" gradientTransform="matrix(227.456,0,0,227.456,88.8576,13.6704)"><stop offset="0" style="stop-color:#3b45ef;stop-opacity:1"/><stop offset="0.5" style="stop-color:#2b80ee;stop-opacity:1"/><stop offset="1" style="stop-color:#3b45ef;stop-opacity:1"/></linearGradient><linearGradient id="_Linear24" x1="0" y1="0" x2="1" y2="0" gradientUnits="userSpaceOnUse" gradientTransform="matrix(214.162,0,0,52.3168,85.8151,26.5374)"><stop offset="0" style="stop-color:#121fe2;stop-opacity:1"/><stop offset="0.5" style="stop-color:#1166d4;stop-opacity:1"/><stop offset="1" style="stop-color:#121fe2;stop-opacity:1"/></linearGradient><linearGradient id="_Linear25" x1="0" y1="0" x2="1" y2="0" gradientUnits="userSpaceOnUse" gradientTransform="matrix(227.456,0,0,227.456,88.8576,13.6704)"><stop offset="0" style="stop-color:#3b45ef;stop-opacity:1"/><stop offset="0.5" style="stop-color:#2b80ee;stop-opacity:1"/><stop offset="1" style="stop-color:#3b45ef;stop-opacity:1"/></linearGradient><linearGradient id="_Linear26" x1="0" y1="0" x2="1" y2="0" gradientUnits="userSpaceOnUse" gradientTransform="matrix(214.162,0,0,52.3168,85.8151,26.5374)"><stop offset="0" style="stop-color:#121fe2;stop-opacity:1"/><stop offset="0.5" style="stop-color:#1166d4;stop-opacity:1"/><stop offset="1" style="stop-color:#121fe2;stop-opacity:1"/></linearGradient></defs></svg>